<svg id="Calque_1" data-name="Calque 1" xmlns="http://www.w3.org/2000/svg" viewBox="0 0 109 37"><defs><style>.cls-1{fill:none;stroke:#ea5c6f;stroke-miterlimit:10;stroke-width:0.5px;}</style></defs><rect class="cls-1" x="88.53" y="22.35" width="14.46" height="14.46"/><rect class="cls-1" x="78.38" y="13.87" width="14.23" height="14.23"/><path d="M14.67.27V12.35H12.92V.27Zm5.51,4.9V6.63H14.53V5.17ZM21.75.27V12.35H20V.27Z"/><path d="M29.09.05a7.13,7.13,0,0,1,2.26.31,3.12,3.12,0,0,1,1.5,1,4.71,4.71,0,0,1,.81,1.93,14.69,14.69,0,0,1,.26,3,14.72,14.72,0,0,1-.26,3,4.7,4.7,0,0,1-.81,1.94,3.05,3.05,0,0,1-1.5,1,7.11,7.11,0,0,1-2.26.32,7.14,7.14,0,0,1-2.27-.32,3.17,3.17,0,0,1-1.51-1,4.84,4.84,0,0,1-.83-1.94,14.72,14.72,0,0,1-.26-3,14.69,14.69,0,0,1,.26-3,4.85,4.85,0,0,1,.83-1.93,3.25,3.25,0,0,1,1.51-1A7.16,7.16,0,0,1,29.09.05Zm0,1.52A3.21,3.21,0,0,0,27.28,2a2.37,2.37,0,0,0-.93,1.46,11.66,11.66,0,0,0-.27,2.84,11.77,11.77,0,0,0,.27,2.84,2.45,2.45,0,0,0,.93,1.47,3.3,3.3,0,0,0,1.81.43,3.2,3.2,0,0,0,1.79-.43,2.51,2.51,0,0,0,.94-1.47,11.69,11.69,0,0,0,.28-2.84,11.58,11.58,0,0,0-.28-2.84A2.42,2.42,0,0,0,30.88,2,3.12,3.12,0,0,0,29.09,1.57Z"/><path d="M45.31.27V7.69a7.77,7.77,0,0,1-.43,2.85,2.87,2.87,0,0,1-1.39,1.55,5.66,5.66,0,0,1-2.57.49,6.08,6.08,0,0,1-2.68-.49,2.85,2.85,0,0,1-1.44-1.55,7.53,7.53,0,0,1-.45-2.85V.27H38.1V7.69a6.44,6.44,0,0,0,.25,2,1.79,1.79,0,0,0,.86,1.05,3.66,3.66,0,0,0,1.62.3,3.53,3.53,0,0,0,1.6-.3,1.87,1.87,0,0,0,.86-1.05,6.09,6.09,0,0,0,.27-2V.27Z"/><path d="M51.63.06c.58,0,1.18,0,1.81.09A13.27,13.27,0,0,1,55.3.43l-.12,1.24-1.69,0-1.81,0c-.41,0-.76,0-1,0a1.81,1.81,0,0,0-.72.19,1,1,0,0,0-.41.51,2.74,2.74,0,0,0-.13,1,1.86,1.86,0,0,0,.35,1.3,2.18,2.18,0,0,0,1.14.57l2.43.65A3,3,0,0,1,55.21,7a4.16,4.16,0,0,1,.53,2.23,5,5,0,0,1-.24,1.7,2,2,0,0,1-.73,1,3.16,3.16,0,0,1-1.29.49,11.15,11.15,0,0,1-1.87.14c-.4,0-.92,0-1.58-.05a18.49,18.49,0,0,1-2.25-.3l.12-1.28,1.69.06,1.13,0h.94A6.19,6.19,0,0,0,53,10.89a1.09,1.09,0,0,0,.72-.53A2.46,2.46,0,0,0,54,9.22a2.78,2.78,0,0,0-.15-1,1.11,1.11,0,0,0-.47-.55,3.29,3.29,0,0,0-.83-.31L50,6.66a3.08,3.08,0,0,1-1.86-1.19,4,4,0,0,1-.54-2.19,5.21,5.21,0,0,1,.23-1.69,1.91,1.91,0,0,1,.73-1A3.08,3.08,0,0,1,49.82.18,11.73,11.73,0,0,1,51.63.06Z"/><path d="M61.53.06c.58,0,1.19,0,1.81.09a13.19,13.19,0,0,1,1.87.28l-.13,1.24-1.68,0-1.82,0c-.4,0-.76,0-1,0a1.71,1.71,0,0,0-.71.19,1,1,0,0,0-.42.51,3,3,0,0,0-.13,1,1.91,1.91,0,0,0,.35,1.3,2.26,2.26,0,0,0,1.14.57l2.43.65A3,3,0,0,1,65.12,7a4.16,4.16,0,0,1,.52,2.23,5.28,5.28,0,0,1-.23,1.7,2,2,0,0,1-.74,1,3.17,3.17,0,0,1-1.28.49,11.28,11.28,0,0,1-1.88.14c-.39,0-.92,0-1.57-.05a18.63,18.63,0,0,1-2.26-.3l.12-1.28,1.69.06,1.13,0h1A6.19,6.19,0,0,0,63,10.89a1.09,1.09,0,0,0,.72-.53,2.46,2.46,0,0,0,.21-1.14,2.78,2.78,0,0,0-.15-1,1.11,1.11,0,0,0-.47-.55,3.37,3.37,0,0,0-.84-.31l-2.5-.68a3.08,3.08,0,0,1-1.85-1.19,3.86,3.86,0,0,1-.55-2.19,4.93,4.93,0,0,1,.24-1.69,1.91,1.91,0,0,1,.73-1A3,3,0,0,1,59.73.18,11.59,11.59,0,0,1,61.53.06Z"/><path d="M72.89.27a.71.71,0,0,1,.4.13.73.73,0,0,1,.25.35l3.81,11.6H75.53l-3-9.71c0-.18-.09-.35-.14-.53s-.09-.34-.14-.49h-.49c0,.15-.09.32-.14.49s-.1.35-.16.53l-3,9.71h-1.8L70.46.75A.65.65,0,0,1,70.7.4a.71.71,0,0,1,.4-.13Zm2.17,7V8.67H68.9V7.22Z"/><path d="M90.55.27c.45,0,.68.24.7.72l.49,11.36H90L89.58,1.69h-.35l-2.55,8.66a.68.68,0,0,1-.74.58H84.51a.72.72,0,0,1-.77-.58L81.18,1.69h-.35l-.4,10.66H78.72L79.19,1c0-.48.26-.72.7-.72h1.89a.72.72,0,0,1,.73.58L84.63,8a6.15,6.15,0,0,1,.23.81q.09.39.21.84h.3l.22-.84q.09-.41.21-.84L87.92.85a.7.7,0,0,1,.74-.58Z"/><path d="M17,15.89a8.49,8.49,0,0,1,2.39.27,2.13,2.13,0,0,1,1.28,1A3.88,3.88,0,0,1,21,19a3.45,3.45,0,0,1-.48,2,2.05,2.05,0,0,1-1.57.79v.07a2.35,2.35,0,0,1,1.89.94,4.13,4.13,0,0,1,.54,2.28A3.9,3.9,0,0,1,21,27a2.08,2.08,0,0,1-1.25.95,7.34,7.34,0,0,1-2.26.28H15.67c-.5,0-1,0-1.41,0l-1.34-.08.24-1.35,1.49,0,2.57,0a5,5,0,0,0,1.44-.16,1.16,1.16,0,0,0,.75-.59,2.87,2.87,0,0,0,.23-1.28,3.18,3.18,0,0,0-.24-1.39,1.35,1.35,0,0,0-.78-.68,4.49,4.49,0,0,0-1.5-.22h-4V21.21h4A5,5,0,0,0,18.43,21a1.12,1.12,0,0,0,.7-.59,2.81,2.81,0,0,0,.21-1.2A2.63,2.63,0,0,0,19.11,18a1.18,1.18,0,0,0-.77-.57,6.28,6.28,0,0,0-1.47-.14h-2.8l-.91.05L12.92,16c.42-.05.82-.08,1.2-.1l1.24,0ZM14.63,16V28.11H12.92V16Z"/><path d="M29.28,16a.62.62,0,0,1,.4.13.71.71,0,0,1,.25.34l3.81,11.61H31.92l-3-9.72c0-.17-.09-.35-.14-.52a4.84,4.84,0,0,0-.14-.49h-.49c0,.15-.09.31-.14.49a5.16,5.16,0,0,1-.16.52l-3,9.72H23L26.85,16.5a.69.69,0,0,1,.24-.34A.65.65,0,0,1,27.5,16Zm2.17,7v1.45H25.29V23Z"/><path d="M40.16,15.82c.53,0,1,0,1.35,0a9.87,9.87,0,0,1,1,.11,9.13,9.13,0,0,1,1,.22l-.17,1.31-1-.08-1,0-1.24,0a3.12,3.12,0,0,0-1.76.44,2.39,2.39,0,0,0-.92,1.46,11.5,11.5,0,0,0-.27,2.81,11.5,11.5,0,0,0,.27,2.81,2.39,2.39,0,0,0,.92,1.46,3.12,3.12,0,0,0,1.76.44c.76,0,1.4,0,1.92-.05s1-.08,1.51-.15l.18,1.32a9.22,9.22,0,0,1-1.58.32,18.78,18.78,0,0,1-2,.1,5.54,5.54,0,0,1-2.8-.61,3.46,3.46,0,0,1-1.54-2,11.68,11.68,0,0,1-.47-3.67,11.75,11.75,0,0,1,.47-3.68,3.5,3.5,0,0,1,1.54-2A5.65,5.65,0,0,1,40.16,15.82Z"/><path d="M50.52,15.82c.53,0,1,0,1.35,0a9.58,9.58,0,0,1,1,.11,9.13,9.13,0,0,1,1,.22l-.17,1.31-1-.08-1,0-1.24,0a3.12,3.12,0,0,0-1.76.44,2.43,2.43,0,0,0-.92,1.46,11.5,11.5,0,0,0-.27,2.81,11.5,11.5,0,0,0,.27,2.81,2.43,2.43,0,0,0,.92,1.46,3.12,3.12,0,0,0,1.76.44c.76,0,1.4,0,1.92-.05s1-.08,1.52-.15l.17,1.32a9.22,9.22,0,0,1-1.58.32,18.78,18.78,0,0,1-2,.1,5.54,5.54,0,0,1-2.8-.61,3.46,3.46,0,0,1-1.54-2,11.68,11.68,0,0,1-.47-3.67,11.75,11.75,0,0,1,.47-3.68,3.5,3.5,0,0,1,1.54-2A5.65,5.65,0,0,1,50.52,15.82Z"/><path d="M61.64,16a.64.64,0,0,1,.4.13.71.71,0,0,1,.25.34L66.1,28.11H64.28l-3-9.72c-.05-.17-.09-.35-.14-.52s-.09-.34-.14-.49H60.5c0,.15-.09.31-.14.49s-.1.35-.16.52l-3,9.72h-1.8L59.21,16.5a.63.63,0,0,1,.24-.34.64.64,0,0,1,.4-.13Zm2.17,7v1.45H57.65V23Z"/><path d="M72.49,15.87a7.39,7.39,0,0,1,2.32.31,2.21,2.21,0,0,1,1.28,1.07,4.53,4.53,0,0,1,.41,2.12A4.9,4.9,0,0,1,76.27,21a2.12,2.12,0,0,1-.71,1,2.74,2.74,0,0,1-1.31.47v.09a1.8,1.8,0,0,1,.6.28,2.53,2.53,0,0,1,.56.57,2.47,2.47,0,0,1,.38.9l1.14,3.8H75.08l-1-3.77a1.9,1.9,0,0,0-.58-.94,1.52,1.52,0,0,0-1-.28H70.6c-.53,0-1,0-1.32,0h-.87l0-1.4h4a4.24,4.24,0,0,0,1.35-.21,1.23,1.23,0,0,0,.71-.65,3.37,3.37,0,0,0,.22-1.33,3.28,3.28,0,0,0-.22-1.32,1.23,1.23,0,0,0-.71-.65,4.07,4.07,0,0,0-1.35-.18H69.92l-1.44,0L68.23,16c.45-.05.87-.08,1.27-.1s.83,0,1.3,0ZM70,16V28.11H68.23V16Z"/><path d="M61,33.77l.28,0a.64.64,0,0,0-.2.3.44.44,0,0,0,0,.32.46.46,0,0,0,.34.18l1.31.22a1,1,0,0,1,.64.29,1,1,0,0,1,.18.65,1.1,1.1,0,0,1-.15.61.83.83,0,0,1-.5.32,3.41,3.41,0,0,1-.94.1,5.11,5.11,0,0,1-.75,0,1.46,1.46,0,0,1-.5-.17.64.64,0,0,1-.27-.32,1.15,1.15,0,0,1-.08-.48,1.09,1.09,0,0,1,0-.39.75.75,0,0,1,.18-.28,2.12,2.12,0,0,1,.35-.24l.38-.2.24.07-.35.25a1.38,1.38,0,0,0-.25.21.76.76,0,0,0-.13.23,1.39,1.39,0,0,0,0,.32.68.68,0,0,0,.11.4.58.58,0,0,0,.36.21,3.35,3.35,0,0,0,.7,0,3,3,0,0,0,.69-.06.57.57,0,0,0,.36-.2.68.68,0,0,0,.1-.4.9.9,0,0,0,0-.31.33.33,0,0,0-.18-.17,1,1,0,0,0-.38-.1L61.29,35a.66.66,0,0,1-.35-.14.51.51,0,0,1-.18-.26.57.57,0,0,1,0-.29.73.73,0,0,1,.11-.29A.5.5,0,0,1,61,33.77Zm1-1.92a2.71,2.71,0,0,1,.84.11.91.91,0,0,1,.45.36,1.47,1.47,0,0,1,0,1.21.89.89,0,0,1-.46.36A2.6,2.6,0,0,1,62,34a2.71,2.71,0,0,1-.84-.11.86.86,0,0,1-.45-.35,1.4,1.4,0,0,1,0-1.22.83.83,0,0,1,.45-.36A2.71,2.71,0,0,1,62,31.85Zm0,.35a1.38,1.38,0,0,0-.79.17.67.67,0,0,0-.23.56.66.66,0,0,0,.23.55,1.38,1.38,0,0,0,.79.17,1.34,1.34,0,0,0,.78-.17.66.66,0,0,0,.22-.55.66.66,0,0,0-.22-.56A1.34,1.34,0,0,0,62,32.2Zm1.82-.27,0,.26-.86.06-.25-.32Z"/><path d="M65.64,31.93l0,.65,0,.11v2.66h-.44V31.93Zm1.7-.08,0,.42h-.17a1.74,1.74,0,0,0-.66.14c-.21.1-.47.24-.77.42l0-.3a3.78,3.78,0,0,1,.78-.5,1.79,1.79,0,0,1,.75-.18Z"/><path d="M71.23,33.26v.34l-1.68,0a.53.53,0,0,0-.39.14.56.56,0,0,0-.12.38v.3a.56.56,0,0,0,.15.43.65.65,0,0,0,.45.14,1.37,1.37,0,0,0,.5-.08,2.13,2.13,0,0,0,.54-.24,2.89,2.89,0,0,0,.47-.38v.34a1.44,1.44,0,0,1-.25.23,2.07,2.07,0,0,1-.36.25,2.13,2.13,0,0,1-.46.2,1.82,1.82,0,0,1-.52.08,1.13,1.13,0,0,1-.51-.11A.81.81,0,0,1,68.7,35a1,1,0,0,1-.12-.51v-.39a.78.78,0,0,1,.24-.61,1,1,0,0,1,.66-.22Zm-.86-1.41a1.51,1.51,0,0,1,.6.1.79.79,0,0,1,.37.33,1.34,1.34,0,0,1,.12.62v2.45h-.35L71,34.6l0-.06V32.9a.75.75,0,0,0-.15-.5.76.76,0,0,0-.57-.17l-.72,0-.8.07,0-.33.51-.07.55-.06Z"/><path d="M73.69,31.93l0,.69,0,.06v2.25l0,.09c0,.13,0,.25,0,.36v1.41h-.45V31.93Zm1.45-.08a1,1,0,0,1,.93.44,2.69,2.69,0,0,1,.27,1.36,3.32,3.32,0,0,1-.13,1.05,1,1,0,0,1-.42.56,1.33,1.33,0,0,1-.72.17,2.65,2.65,0,0,1-.68-.09,3.11,3.11,0,0,1-.66-.28l0-.28.64.19A2.25,2.25,0,0,0,75,35a1,1,0,0,0,.53-.12.77.77,0,0,0,.29-.43,3.06,3.06,0,0,0,.09-.84,3.63,3.63,0,0,0-.08-.83.79.79,0,0,0-.28-.44.82.82,0,0,0-.5-.14,1.26,1.26,0,0,0-.59.15,3.91,3.91,0,0,0-.69.46l0-.33a2.54,2.54,0,0,1,.45-.36,2,2,0,0,1,.49-.23A1.73,1.73,0,0,1,75.14,31.85Z"/><path d="M78.51,30.42v1.41c0,.14,0,.28,0,.4a2.94,2.94,0,0,1-.05.35l.05.11v2.66h-.44V30.42Zm1.54,1.43a.82.82,0,0,1,.92.94v2.56h-.45V32.9a.71.71,0,0,0-.14-.51.57.57,0,0,0-.44-.16,1.65,1.65,0,0,0-.68.16,6.23,6.23,0,0,0-.8.47v-.34a4.37,4.37,0,0,1,.81-.49A1.93,1.93,0,0,1,80.05,31.85Z"/><path d="M83.19,30.49a.13.13,0,0,1,.15.15v.42a.13.13,0,0,1-.15.15H83a.13.13,0,0,1-.15-.15v-.42a.13.13,0,0,1,.15-.15Zm.12,1.44v3.42h-.44V31.93Z"/><path d="M86.32,31.85h.46l.49,0,.45.05,0,.33c-.21,0-.42,0-.64,0l-.65,0-.54,0a.5.5,0,0,0-.3.14.66.66,0,0,0-.09.39.5.5,0,0,0,.13.41.88.88,0,0,0,.4.16l1,.2a1,1,0,0,1,.58.28.86.86,0,0,1,.2.63,1,1,0,0,1-.16.63.72.72,0,0,1-.47.27,3.5,3.5,0,0,1-.79.07l-.54,0a7.4,7.4,0,0,1-.76-.07l0-.33.38,0h.81A4.75,4.75,0,0,0,87,35a.52.52,0,0,0,.33-.16.61.61,0,0,0,.1-.38.45.45,0,0,0-.16-.41,1.1,1.1,0,0,0-.41-.15l-1-.19a1.21,1.21,0,0,1-.43-.17.71.71,0,0,1-.25-.29,1.28,1.28,0,0,1-.08-.47,1.1,1.1,0,0,1,.14-.61.69.69,0,0,1,.43-.27A3.17,3.17,0,0,1,86.32,31.85Z"/><path d="M91.32,31.93v.37H89.1V32l.67,0Zm-1.16-1v3.6a.49.49,0,0,0,.13.38.5.5,0,0,0,.37.12h.56l.06.33-.25.05-.26,0h-.21a.76.76,0,0,1-.84-.86V30.9Z"/><path d="M94.15,31.85a1.75,1.75,0,0,1,1.08.27,1,1,0,0,1,.34.79,1.13,1.13,0,0,1-.17.71.72.72,0,0,1-.61.24h-2v-.35h1.88a.37.37,0,0,0,.35-.17.77.77,0,0,0,.08-.42.61.61,0,0,0-.23-.53,1.32,1.32,0,0,0-.72-.16,1.47,1.47,0,0,0-.65.13.7.7,0,0,0-.33.43,2.54,2.54,0,0,0-.1.81,2.61,2.61,0,0,0,.12.89.71.71,0,0,0,.38.43,1.47,1.47,0,0,0,.68.13l.62,0a4.18,4.18,0,0,0,.56-.06l0,.31-.38.09-.47,0a3.47,3.47,0,0,1-.44,0,1.89,1.89,0,0,1-.92-.18,1.06,1.06,0,0,1-.51-.57,2.81,2.81,0,0,1-.17-1,3,3,0,0,1,.16-1.06,1,1,0,0,1,.5-.55A1.89,1.89,0,0,1,94.15,31.85Z"/></svg>